# Blender 3.4.1
# www.blender.org
mtllib house.mtl
o Cube
v 1.000000 0.854203 -1.000000
v 1.000000 -0.566476 -1.000000
v 1.000000 0.854203 1.000000
v 1.000000 -0.566476 1.000000
v -1.000000 0.854203 -1.000000
v -1.000000 -0.566476 -1.000000
v -1.000000 0.854203 1.000000
v -1.000000 -0.566476 1.000000
vn -0.0000 1.0000 -0.0000
vn -0.0000 -0.0000 1.0000
vn -1.0000 -0.0000 -0.0000
vn -0.0000 -1.0000 -0.0000
vn 1.0000 -0.0000 -0.0000
vn -0.0000 -0.0000 -1.0000
vt 0.625000 0.500000
vt 0.907284 0.632491
vt 0.000000 0.632491
vt 0.375000 0.500000
vt 0.907284 0.337051
vt 0.000000 0.337051
vt 0.625000 0.750000
vt 0.611843 0.632491
vt 0.375000 0.750000
vt 0.611843 0.337051
vt 0.875000 0.500000
vt 0.625000 0.250000
vt 0.295440 0.632491
vt 0.375000 0.250000
vt 0.125000 0.500000
vt 0.295440 0.337051
vt 0.875000 0.750000
vt 0.316403 0.632491
vt 0.625000 0.000000
vt 0.316403 0.337051
vt 0.375000 0.000000
vt 0.125000 0.750000
s 0
usemtl Material
f 1/1/1 5/11/1 7/17/1 3/7/1
f 4/10/2 3/8/2 7/18/2 8/20/2
f 8/21/3 7/19/3 5/12/3 6/14/3
f 6/15/4 2/4/4 4/9/4 8/22/4
f 2/5/5 1/2/5 3/8/5 4/10/5
f 6/16/6 5/13/6 1/3/6 2/6/6
o Cube.001
v -1.065744 0.785785 1.152978
v -1.065744 1.470039 0.084184
v -1.065744 0.785785 -1.128707
v -1.065744 1.470039 -0.059912
v 1.076165 0.785785 1.152978
v 1.076165 1.470039 0.084184
v 1.076165 0.785785 -1.128707
v 1.076165 1.470039 -0.059912
vn -1.0000 -0.0000 -0.0000
vn -0.0000 0.8422 -0.5392
vn 1.0000 -0.0000 -0.0000
vn -0.0000 0.8422 0.5392
vn -0.0000 -1.0000 -0.0000
vn -0.0000 1.0000 -0.0000
vt 0.375000 0.000000
vt 0.632806 0.337051
vt 0.000000 0.337051
vt 0.625000 0.000000
vt 0.632806 0.179168
vt 0.375000 0.250000
vt 0.632806 0.000000
vt 0.000000 0.000000
vt 0.625000 0.250000
vt 0.632806 0.157883
vt 0.632806 0.337051
vt 0.316403 0.337051
vt 0.775102 0.179168
vt 0.316403 0.179168
vt 0.632806 0.000000
vt 0.316403 0.000000
vt 0.775102 0.157883
vt 0.316403 0.157883
s 0
f 9/23/7 10/26/7 12/31/7 11/28/7
f 11/29/8 12/32/8 16/40/8 15/38/8
f 15/37/9 16/39/9 14/35/9 13/33/9
f 13/34/10 14/36/10 10/27/10 9/24/10
f 11/30/11 15/38/11 13/34/11 9/25/11
f 16/40/12 12/32/12 10/27/12 14/36/12
o Cube.002
v -0.789883 -0.344942 -0.669634
v -0.789883 1.371251 -0.669634
v -0.789883 -0.344942 -0.940409
v -0.789883 1.371251 -0.940409
v -0.433012 -0.344942 -0.669634
v -0.433012 1.371251 -0.669634
v -0.433012 -0.344942 -0.940409
v -0.433012 1.371251 -0.940409
vn -1.0000 -0.0000 -0.0000
vn -0.0000 -0.0000 -1.0000
vn 1.0000 -0.0000 -0.0000
vn -0.0000 -0.0000 1.0000
vn -0.0000 -1.0000 -0.0000
vn -0.0000 1.0000 -0.0000
vt 0.375000 0.000000
vt 0.907284 0.337051
vt 0.125000 0.750000
vt 0.625000 0.000000
vt 0.907284 0.969918
vt 0.000000 0.685208
vt 0.375000 0.250000
vt 0.125000 0.500000
vt 0.625000 0.250000
vt 0.039999 0.685208
vt 0.960001 0.337051
vt 0.375000 0.750000
vt 0.960001 0.969918
vt 0.000000 0.632491
vt 1.000000 0.337051
vt 0.375000 0.500000
vt 0.625000 0.500000
vt 1.000000 0.969918
vt 0.039999 0.632491
s 0
f 17/41/13 18/44/13 20/49/13 19/47/13
f 19/47/14 20/49/14 24/57/14 23/56/14
f 23/55/15 24/58/15 22/53/15 21/51/15
f 21/51/16 22/53/16 18/45/16 17/42/16
f 19/48/17 23/56/17 21/52/17 17/43/17
f 24/59/18 20/50/18 18/46/18 22/54/18
